<?xml version="1.0" encoding="utf-8"?>
<!-- Generator: Adobe Illustrator 16.0.0, SVG Export Plug-In . SVG Version: 6.00 Build 0)  -->
<!DOCTYPE svg PUBLIC "-//W3C//DTD SVG 1.1//EN" "http://www.w3.org/Graphics/SVG/1.1/DTD/svg11.dtd">
<svg version="1.1" id="Layer" xmlns="http://www.w3.org/2000/svg" xmlns:xlink="http://www.w3.org/1999/xlink" x="0px" y="0px"
	 width="335.986px" height="235.189px" viewBox="0 0 335.986 235.189" enable-background="new 0 0 335.986 235.189"
	 xml:space="preserve">
<linearGradient id="SVGID_1_" gradientUnits="userSpaceOnUse" x1="167.9517" y1="179.1055" x2="167.9516" y2="0">
	<stop  offset="7.630800e-04" style="stop-color:#D7A9CF"/>
	<stop  offset="1" style="stop-color:#672777"/>
</linearGradient>
<rect y="0" fill="url(#SVGID_1_)" width="335.903" height="179.106"/>
<g>
	<path opacity="0.15" fill="#FFFFFF" d="M238.924,120.431c-17.464,40.109-64.142,58.48-104.253,41.013
		C94.559,143.984,76.196,97.31,93.663,57.194c17.457-40.105,64.132-58.476,104.249-41.013
		C238.024,33.644,256.384,80.318,238.924,120.431z"/>
	<path opacity="0.15" fill="#FFFFFF" d="M220.407,112.37c-13.012,29.884-47.789,43.571-77.675,30.557
		c-29.885-13.009-43.566-47.783-30.553-77.672c13.006-29.881,47.782-43.568,77.671-30.557
		C219.737,47.709,233.416,82.483,220.407,112.37z"/>
	<path opacity="0.15" fill="#FFFFFF" d="M207.622,106.805c-9.938,22.823-36.498,33.276-59.323,23.337
		c-22.824-9.935-33.273-36.494-23.334-59.321c9.933-22.821,36.493-33.275,59.321-23.338
		C207.11,57.42,217.558,83.979,207.622,106.805z"/>
	<path opacity="0.8" fill="#FFFFFF" d="M198.661,102.903c-7.782,17.875-28.585,26.062-46.461,18.277
		c-17.875-7.78-26.059-28.581-18.275-46.459c7.78-17.874,28.581-26.061,46.459-18.278
		C198.261,64.227,206.442,85.027,198.661,102.903z"/>
</g>
<g opacity="0.6">
	<polygon opacity="0.2" fill="#FFFFFF" points="0,65.09 0,80.204 186.009,73.206 	"/>
	<polygon opacity="0.1" fill="#FFFFFF" points="0,37.115 0,53.786 238.879,45.264 	"/>
	<polygon opacity="0.1" fill="#FFFFFF" points="0,17.979 0,29.683 138.404,29.122 	"/>
	<polygon opacity="0.1" fill="#FFFFFF" points="335.862,112.181 11.488,126.249 335.862,136.652 	"/>
	<polygon opacity="0.1" fill="#FFFFFF" points="335.862,93.684 134.955,103.152 335.862,111.297 	"/>
	<polygon opacity="0.1" fill="#FFFFFF" points="335.862,70.224 161.227,80.871 335.862,88.835 	"/>
	<polygon opacity="0.1" fill="#FFFFFF" points="335.862,46.456 51.718,61.808 335.862,68.106 	"/>
	<polygon opacity="0.2" fill="#FFFFFF" points="335.862,13.987 134.457,21.856 335.862,31.251 	"/>
</g>
<g>
	<g>
		<path fill="#371E40" d="M181.229,31.058c0.021-0.026,0.052-0.047,0.089-0.067c0.066-0.022,0.131-0.043,0.197-0.062
			c0.065-0.019,0.132-0.033,0.199-0.044c0.216-0.037,0.435-0.06,0.653-0.072c0.072-0.001,0.146-0.003,0.22-0.003
			c0.263-0.005,0.521,0.026,0.779,0.061c0.004,0,0.007,0.001,0.011,0.001c0.049,0.007,0.097,0.012,0.146,0.019
			c-0.02,0-0.04-0.001-0.06-0.001c0.332,0.042,0.662,0.103,0.983,0.199c0.176,0.054,0.346,0.125,0.52,0.185
			c0.901,0.308,1.836,1.185,2.019,1.33c0.121,0.094,0.78,0.667,1.263,1.038c0.603-0.09,1.458-0.271,1.608-0.294
			c0.23-0.038,1.474-0.351,2.41-0.182c0.182,0.033,0.364,0.053,0.545,0.091c0.326,0.072,0.646,0.179,0.956,0.304
			c-0.018-0.01-0.036-0.019-0.054-0.028c0.046,0.018,0.091,0.037,0.137,0.055c0.003,0.001,0.007,0.002,0.01,0.004
			c0.243,0.095,0.484,0.193,0.711,0.325c0.064,0.036,0.128,0.073,0.19,0.109c0.186,0.118,0.366,0.243,0.537,0.38
			c0.053,0.043,0.104,0.088,0.152,0.136c0.049,0.048,0.096,0.098,0.143,0.149c0.021,0.036,0.039,0.069,0.045,0.102
			c0.014,0.057-0.014,0.105-0.056,0.136c-0.042,0.03-0.098,0.042-0.149,0.036c-0.216-0.045-0.406-0.145-0.596-0.254
			c-0.037-0.02-0.075-0.043-0.114-0.064c-0.03-0.021-0.062-0.039-0.094-0.056c-0.031-0.017-0.063-0.034-0.095-0.049
			c-0.007-0.003-0.013-0.007-0.019-0.01c-0.033-0.017-0.066-0.034-0.1-0.05c-0.215-0.102-0.436-0.202-0.648-0.303
			c-0.47-0.207-2.401-1.05-4.67,0.357c-0.563,0.35-0.973,0.94-1.303,0.854c-0.354-0.092-0.377-0.772-0.725-1.379
			c-1.323-2.318-3.397-2.533-3.908-2.581c-0.235-0.015-0.477-0.035-0.715-0.05c-0.036-0.002-0.073-0.004-0.11-0.005
			c-0.008,0-0.015,0-0.021,0c-0.035-0.001-0.071-0.002-0.107-0.003c-0.036,0-0.072,0-0.108,0.003c-0.045,0-0.089,0.001-0.132,0.001
			c-0.218,0.003-0.434-0.003-0.644-0.068c-0.049-0.019-0.091-0.057-0.113-0.104C181.19,31.157,181.19,31.101,181.229,31.058z"/>
		<path fill="#371E40" d="M196.075,48.249c0.014-0.03,0.039-0.059,0.069-0.086c0.06-0.038,0.117-0.073,0.178-0.107
			c0.06-0.034,0.12-0.063,0.183-0.091c0.201-0.087,0.407-0.161,0.618-0.226c0.069-0.019,0.141-0.038,0.212-0.055
			c0.254-0.067,0.512-0.099,0.771-0.127c0.004,0,0.007,0,0.011-0.001c0.049-0.005,0.097-0.012,0.146-0.017
			c-0.02,0.005-0.039,0.008-0.059,0.013c0.333-0.039,0.668-0.059,1.003-0.042c0.184,0.011,0.365,0.039,0.549,0.055
			c0.948,0.083,2.065,0.712,2.277,0.809c0.14,0.062,0.917,0.461,1.475,0.707c0.563-0.231,1.351-0.611,1.491-0.67
			c0.215-0.091,1.347-0.692,2.297-0.752c0.184-0.012,0.366-0.036,0.551-0.042c0.334-0.008,0.669,0.02,1.001,0.067
			c-0.02-0.005-0.039-0.009-0.059-0.015c0.049,0.006,0.097,0.014,0.146,0.021c0.004,0,0.007,0,0.011,0.001
			c0.259,0.034,0.517,0.072,0.768,0.146c0.071,0.02,0.142,0.04,0.211,0.061c0.209,0.069,0.414,0.148,0.612,0.241
			c0.062,0.029,0.122,0.061,0.181,0.096c0.06,0.035,0.116,0.072,0.174,0.111c0.03,0.029,0.055,0.058,0.068,0.088
			c0.026,0.052,0.012,0.105-0.021,0.145c-0.034,0.039-0.084,0.064-0.136,0.07c-0.221,0.007-0.43-0.044-0.64-0.104
			c-0.041-0.011-0.083-0.024-0.127-0.035c-0.034-0.013-0.068-0.023-0.104-0.032c-0.035-0.009-0.07-0.018-0.104-0.025
			c-0.007-0.001-0.014-0.004-0.021-0.005c-0.036-0.009-0.072-0.017-0.108-0.025c-0.233-0.047-0.472-0.091-0.702-0.139
			c-0.505-0.088-2.583-0.445-4.449,1.463c-0.464,0.474-0.72,1.145-1.062,1.141c-0.365-0.005-0.55-0.66-1.032-1.167
			c-1.839-1.935-3.905-1.648-4.412-1.571c-0.232,0.042-0.472,0.08-0.705,0.122c-0.036,0.007-0.073,0.014-0.109,0.022
			c-0.007,0.001-0.014,0.003-0.021,0.004c-0.034,0.007-0.069,0.015-0.104,0.023c-0.035,0.008-0.07,0.018-0.104,0.029
			c-0.044,0.01-0.087,0.022-0.128,0.032c-0.211,0.055-0.422,0.101-0.642,0.088c-0.052-0.006-0.102-0.033-0.135-0.073
			C196.061,48.354,196.047,48.3,196.075,48.249z"/>
		<path fill="#371E40" d="M95.613,92.177c0.014-0.03,0.04-0.059,0.07-0.086c0.059-0.038,0.117-0.073,0.177-0.107
			c0.06-0.034,0.12-0.063,0.183-0.091c0.201-0.087,0.408-0.161,0.618-0.226c0.07-0.019,0.141-0.038,0.212-0.056
			c0.254-0.067,0.512-0.099,0.772-0.126c0.003,0,0.007,0,0.01-0.001c0.049-0.005,0.097-0.012,0.146-0.017
			c-0.02,0.005-0.04,0.008-0.059,0.013c0.333-0.04,0.668-0.059,1.002-0.042c0.184,0.011,0.366,0.039,0.549,0.055
			c0.949,0.083,2.066,0.712,2.278,0.809c0.139,0.062,0.917,0.461,1.474,0.706c0.563-0.231,1.35-0.611,1.491-0.67
			c0.214-0.091,1.347-0.692,2.297-0.753c0.184-0.011,0.366-0.035,0.55-0.042c0.334-0.008,0.669,0.02,1.001,0.067
			c-0.02-0.005-0.04-0.009-0.059-0.015c0.049,0.006,0.097,0.015,0.146,0.021c0.003,0,0.007,0,0.01,0.001
			c0.259,0.034,0.517,0.072,0.768,0.146c0.071,0.019,0.142,0.04,0.211,0.061c0.209,0.069,0.414,0.148,0.612,0.241
			c0.062,0.029,0.122,0.061,0.181,0.096c0.059,0.035,0.116,0.072,0.174,0.111c0.03,0.029,0.054,0.058,0.068,0.088
			c0.026,0.052,0.011,0.105-0.021,0.145c-0.034,0.04-0.084,0.065-0.136,0.07c-0.221,0.008-0.43-0.043-0.64-0.104
			c-0.041-0.011-0.083-0.024-0.126-0.035c-0.034-0.013-0.069-0.023-0.104-0.032c-0.035-0.009-0.07-0.018-0.104-0.025
			c-0.007-0.001-0.014-0.003-0.021-0.005c-0.037-0.009-0.073-0.017-0.108-0.025c-0.233-0.047-0.471-0.091-0.702-0.139
			c-0.505-0.089-2.583-0.445-4.45,1.463c-0.463,0.474-0.72,1.145-1.061,1.141c-0.366-0.004-0.551-0.659-1.033-1.167
			c-1.839-1.935-3.905-1.648-4.412-1.571c-0.232,0.042-0.471,0.08-0.706,0.122c-0.036,0.007-0.073,0.014-0.109,0.021
			c-0.007,0.001-0.014,0.004-0.021,0.005c-0.034,0.007-0.069,0.015-0.104,0.023c-0.035,0.008-0.07,0.018-0.104,0.029
			c-0.044,0.01-0.086,0.022-0.128,0.032c-0.211,0.056-0.421,0.102-0.642,0.088c-0.052-0.006-0.102-0.033-0.135-0.073
			C95.599,92.282,95.585,92.229,95.613,92.177z"/>
		<path fill="#371E40" d="M161.461,39.172c0.017-0.012,0.04-0.021,0.065-0.027c0.043-0.003,0.086-0.006,0.129-0.006
			c0.043-0.001,0.086,0,0.128,0.004c0.138,0.011,0.274,0.032,0.41,0.059c0.044,0.01,0.089,0.021,0.134,0.032
			c0.16,0.039,0.312,0.098,0.465,0.16c0.002,0.001,0.004,0.002,0.006,0.002c0.028,0.012,0.057,0.022,0.086,0.034
			c-0.012-0.003-0.024-0.007-0.037-0.01c0.196,0.078,0.388,0.167,0.568,0.275c0.099,0.061,0.191,0.131,0.288,0.194
			c0.501,0.329,0.933,1.01,1.021,1.126c0.058,0.076,0.37,0.528,0.606,0.83c0.381,0.04,0.93,0.064,1.025,0.073
			c0.146,0.013,0.953,0.018,1.497,0.267c0.105,0.048,0.213,0.089,0.317,0.141c0.188,0.095,0.365,0.21,0.535,0.335
			c-0.009-0.009-0.019-0.017-0.028-0.025c0.025,0.018,0.049,0.037,0.074,0.055c0.002,0.001,0.004,0.002,0.005,0.004
			c0.133,0.096,0.265,0.194,0.382,0.31c0.033,0.032,0.066,0.064,0.099,0.096c0.095,0.101,0.185,0.206,0.268,0.316
			c0.025,0.034,0.05,0.069,0.071,0.106c0.022,0.037,0.043,0.075,0.063,0.113c0.008,0.025,0.013,0.048,0.012,0.069
			c-0.001,0.037-0.025,0.062-0.055,0.074c-0.031,0.012-0.066,0.011-0.097-0.001c-0.125-0.062-0.226-0.152-0.323-0.248
			c-0.02-0.018-0.039-0.038-0.06-0.057c-0.016-0.018-0.032-0.033-0.049-0.049c-0.017-0.015-0.033-0.031-0.05-0.045
			c-0.003-0.003-0.006-0.006-0.01-0.009c-0.018-0.015-0.035-0.031-0.053-0.046c-0.115-0.096-0.234-0.191-0.348-0.286
			c-0.253-0.2-1.298-1.016-2.9-0.515c-0.397,0.125-0.74,0.42-0.927,0.316c-0.202-0.111-0.109-0.529-0.225-0.954
			c-0.442-1.62-1.672-2.076-1.976-2.185c-0.141-0.046-0.285-0.096-0.427-0.143c-0.022-0.007-0.044-0.014-0.067-0.021
			c-0.004-0.001-0.009-0.002-0.013-0.003c-0.021-0.006-0.043-0.013-0.065-0.019s-0.044-0.011-0.066-0.015
			c-0.027-0.008-0.055-0.013-0.081-0.021c-0.133-0.032-0.264-0.069-0.382-0.142c-0.026-0.02-0.046-0.049-0.052-0.081
			C161.422,39.226,161.431,39.192,161.461,39.172z"/>
	</g>
</g>
<g>
	<path fill="#884896" d="M231.135,110.875l-14.544,13.18l-46.655-35.706c-2.182-1.669-5.246-1.538-7.277,0.312l-60.295,54.946
		l-11.379-11.816c-1.105-1.148-2.931-1.188-4.085-0.088L45.25,171.393h272.705l-82.807-60.725
		C233.931,109.774,232.253,109.861,231.135,110.875z"/>
	<path fill="#B381B7" d="M169.569,88.081l89.264,68.633l-15.229,14.679h-67.04l14.553-24.565c1.535-2.59-0.332-5.867-3.344-5.867
		h-5.572c-2.57,0-4.433-2.449-3.745-4.925l3.919-14.13c0.687-2.477-1.176-4.925-3.745-4.925h-8.577c-2.146,0-3.886-1.74-3.886-3.887
		V89.757C166.167,88.003,168.179,87.012,169.569,88.081z"/>
	<path fill="#B381B7" d="M234.943,110.517l40.846,29.954l-18.697,30.922l1.741-21.23l-3.038-7.194
		c-0.842-1.659-2.545-2.705-4.406-2.705h-1.623c-2.754,0-4.976-2.25-4.941-5.004l0.054-4.231c0.035-2.753-2.188-5.004-4.94-5.004
		h-1.939c-2.729,0-4.941-2.212-4.941-4.941v-9.609C233.057,110.502,234.16,109.943,234.943,110.517z"/>
	<path fill="#B381B7" d="M277.41,141.659l40.545,29.733h-36.899l5.229-4.547c1.812-1.575,0.819-4.554-1.575-4.728l-0.02-0.001
		c-1.675-0.121-2.833-1.727-2.421-3.354l0.937-3.692c0.417-1.645-0.77-3.261-2.463-3.357l-1.813-0.103
		c-1.356-0.076-2.445-1.15-2.539-2.506l-0.461-6.628C275.873,141.685,276.771,141.19,277.41,141.659z"/>
	<path fill="#B381B7" d="M102.364,143.607l-24.53,20.407l7.792-13.668c0.293-0.514-0.069-1.155-0.661-1.169l-2.75-0.064
		c-0.637-0.015-0.99-0.743-0.607-1.252l5.624-7.468c0.449-0.597-0.113-1.423-0.833-1.225l0,0c-0.629,0.174-1.182-0.454-0.93-1.056
		l2.466-5.889c0.497-1.187,2.046-1.477,2.938-0.55L102.364,143.607z"/>
</g>
<path fill="#7B378D" d="M27.787,149.476c40.192-34.631,90.969-29.624,143.178,10.852c11.98,9.289,23.573,13.997,34.718,16.254
	H71.759c-3.383-1.846-6.806-4.066-10.268-6.751C50.131,161.023,38.853,154.224,27.787,149.476z"/>
<path fill="#B381B7" d="M175.436,165.063c6.589,5.109,13.061,8.826,19.405,11.518h10.842c-11.145-2.257-22.737-6.965-34.718-16.254
	c-52.209-40.476-102.986-45.483-143.178-10.852c2.157,0.926,4.325,1.953,6.497,3.034C74.149,119.76,124.1,125.266,175.436,165.063z"
	/>
<g>
	<path fill="#884896" d="M335.99,176.56H165.354c16.681-2.319,34.032-7.156,51.966-16.7c40.792-21.707,80.995-33.462,118.67-34.701
		V176.56z"/>
	<path fill="#B381B7" d="M217.32,159.859c-17.934,9.544-35.285,14.381-51.966,16.7h13.724c12.416-2.803,25.174-7.25,38.242-14.205
		c40.792-21.707,80.995-30.214,118.67-31.453v-5.743C298.315,126.397,258.112,138.152,217.32,159.859z"/>
	<path fill="#5F2975" d="M0.021,176.581h99.866c-9.763-1.357-19.918-4.189-30.414-9.777C45.6,154.095,22.071,147.213,0.021,146.487
		V176.581z"/>
	<path fill="#B381B7" d="M88.323,176.581h11.563c-9.763-1.357-19.918-4.189-30.414-9.777C45.6,154.095,22.071,147.213,0.021,146.487
		v2.332c22.05,0.726,45.579,7.607,69.452,20.316C75.888,172.551,82.175,174.933,88.323,176.581z"/>
</g>
<path fill="#6D2D84" d="M167.232,164.388c-11.488,7.755-23.573,10.5-34.718,12.193h133.923c3.383-1.385,69.216,4.005,69.216,0
	C335.653,170.125,266.768,97.197,167.232,164.388z"/>
<path fill="#B381B7" d="M168.695,165.584c71.359-44.182,125.125-24.842,151.696-5.443c-25.568-19.804-81.395-44.197-153.16,4.247
	c-11.488,7.755-23.573,10.5-34.718,12.193C132.514,176.581,150.88,176.614,168.695,165.584z"/>
<path fill="#884896" d="M132.366,176.614c-3.551-2.429-8.619-4.599-11.578-6.301c-24.736-14.218-56.351-12.565-88.875,3.232
	c-2.512,1.22-4.995,2.229-7.45,3.068H132.366z"/>
<path fill="#5F2975" d="M272.028,166.275c-24.39-13.167-55.202-11.264-86.885,4.126c-7.271,3.532-14.305,5.321-21.067,6.18h81.269
	c2.053-0.702,4.13-1.546,6.231-2.566C258.47,170.666,265.313,168.081,272.028,166.275z"/>
<path fill="#884896" d="M335.99,167.262c-26.512-13.026-59.476-10.518-93.339,5.939c-2.765,1.344-5.498,2.456-8.2,3.38H335.99
	V167.262z"/>
<path fill="#B381B7" d="M242.651,173.201c-2.765,1.344-5.498,2.456-8.2,3.38c0,0,66.571-28.732,101.539-6.795v-2.524
	C309.479,154.235,276.515,156.744,242.651,173.201z"/>
<rect x="-0.124" y="176.614" fill="#452254" width="336.095" height="58.589"/>
<path fill="#371E40" d="M109.152,235.143h111.445c-4.095-28.793-25.964-40.531-37.814-44.875c-12.666-4.643-18.851-13.7-18.851-13.7
	l-31.566,0.047c0,0,1.033,4.209,4.57,8.952c2.765,3.707,7.428,10.8,4.932,17.309C137.733,213.736,124.724,224.967,109.152,235.143z"
	/>
<path fill="#371E40" d="M309.781,186.292c-0.005,0-0.009,0-0.015,0v-53.775c0-0.002,0.001-0.003,0.001-0.005
	c0-3.479,9.105-5.821,9.105-5.821s0,0,0-0.572c-3.594,0-6.647,0.766-9.106,1.747V0.078h-16.405v186.99
	c-0.577,9.274-11.132,12.455-11.132,12.455c0.204-0.181,38.535-0.181,38.739,0C320.969,199.523,309.781,196.182,309.781,186.292z"/>
<path fill="#452254" d="M228.984,188.191c-0.005,0-0.009,0-0.013,0V0h-14.05v66.478c-3.446-1.046-5.711-7.903-5.711-7.903
	s0,0-0.647,0c0,7.554,4.856,12.455,6.358,13.791v116.491c-0.494,7.943-9.533,10.667-9.533,10.667c0.174-0.154,33.002-0.154,33.176,0
	C238.564,199.523,228.984,196.661,228.984,188.191z"/>
<path fill="#452254" d="M74.368,185.659c-0.004,0-0.007,0-0.011,0V0.479H61.569V66.12c-3.655-0.638-6.084-7.987-6.084-7.987
	s0,0-0.647,0c0,8.373,5.982,13.503,6.731,14.113v114.018c-0.45,7.229-8.677,9.708-8.677,9.708c0.159-0.141,30.038-0.141,30.196,0
	C83.088,195.973,74.368,193.368,74.368,185.659z"/>
<path fill="#5C2873" d="M53.413,191.128c0,0-4.854-1.45-4.854-5.741c-0.002,0-0.004,0-0.006,0V0.506h-7.118v185.217
	c-0.251,4.024-4.831,5.404-4.831,5.404C36.692,191.05,53.324,191.05,53.413,191.128z"/>
<path fill="#371E40" d="M99.255,186.292c-0.005,0-0.01,0-0.015,0V70.22c1.946-2.38,4.327-6.36,4.327-11.646
	c-0.648,0-0.648,0-0.648,0s-1.404,4.242-3.679,6.565V28.086c1.946-2.379,4.327-6.36,4.327-11.645c-0.648,0-0.648,0-0.648,0
	s-1.404,4.242-3.679,6.565V0.078H82.835v55.299c-3.481-0.983-5.771-7.926-5.771-7.926s0,0-0.648,0
	c0,7.654,4.989,12.587,6.419,13.845v42.133c-3.481-0.983-5.771-7.926-5.771-7.926s0,0-0.648,0c0,7.655,4.989,12.588,6.419,13.845
	v77.719c-0.578,9.274-11.132,12.455-11.132,12.455c0.204-0.181,38.535-0.181,38.739,0
	C110.442,199.523,99.255,196.182,99.255,186.292z"/>
<g>
	<path fill="#5C2873" d="M99.241,23.006V0.078h-2.501v25.461C97.769,24.488,98.307,23.973,99.241,23.006z"/>
	<path fill="#5C2873" d="M99.255,186.292c-0.005,0-0.01,0-0.015,0V70.22c1.946-2.38,4.327-6.36,4.327-11.646
		c-0.648,0-0.648,0-0.648,0s-0.276,7.445-6.181,11.646v116.072c0.005,0,0.01,0,0.015,0c0,9.073,9.409,12.632,10.964,13.158
		c1.674,0.02,2.691,0.044,2.724,0.073C110.442,199.523,99.255,196.182,99.255,186.292z"/>
	<path fill="#5C2873" d="M96.739,28.086v39.088c1.023-0.929,1.598-1.311,2.501-2.035V28.086c1.946-2.379,4.327-6.36,4.327-11.645
		c-0.648,0-0.648,0-0.648,0S102.779,23.006,96.739,28.086z"/>
	<path fill="#5C2873" d="M77.064,95.504c0,0,0,0-0.648,0c0,0.02,0,0.04,0,0.06c0.012,3.44,1.787,6.654,4.6,8.636
		c0.749,0.528,1.422,0.93,1.819,1.042v-1.812C79.375,102.312,77.064,95.504,77.064,95.504z"/>
	<path fill="#5C2873" d="M82.961,57.751l-0.125-2.374c-3.768-1.592-5.771-7.926-5.771-7.926s0,0-0.648,0c0,0.02,0,0.04,0,0.06
		c0.011,3.329,1.609,6.455,4.153,8.603C81.545,56.938,82.473,57.614,82.961,57.751z"/>
	<path fill="#5C2873" d="M71.924,199.45c-0.14,0.048-0.221,0.073-0.221,0.073c0.098-0.087,8.92-0.132,18.119-0.136
		C82.867,199.386,75.705,199.406,71.924,199.45z"/>
</g>
<path fill="#371E40" d="M256.798,199.523c0,0-8.957-2.676-8.957-10.595c-0.004,0-0.007,0-0.012,0V0.02h-13.135v189.531
	c-0.463,7.426-8.913,9.973-8.913,9.973C225.944,199.379,256.635,199.379,256.798,199.523z"/>
<path fill="#452254" d="M329.671,191.128c0,0-4.854-1.45-4.854-5.741c-0.002,0-0.004,0-0.007,0V0.506h-7.118v185.217
	c-0.25,4.024-4.83,5.404-4.83,5.404C312.95,191.05,329.582,191.05,329.671,191.128z"/>
<path fill="#452254" d="M24.244,191.128c0,0-4.854-1.45-4.854-5.741c-0.002,0-0.004,0-0.006,0V0.506h-7.118v185.217
	c-0.251,4.024-4.831,5.404-4.831,5.404C7.523,191.05,24.155,191.05,24.244,191.128z"/>
<g>
	<g>
		<path fill="#371E40" d="M31.812,20.385H0v15.848c1.537,1.957,3.416,3.645,5.552,4.918c-3.858,5.664-3.181,14,1.542,18.963
			c-1.844,0.75-3.054,2.68-3.271,4.664s0.449,3.988,1.51,5.676c1.262,2.007,3.233,3.714,5.579,4.023
			c2.347,0.309,4.976-1.164,5.41-3.497c5.085-1.845,9.145-6.311,10.505-11.56c1.361-5.249-0.014-11.133-3.558-15.229
			c3.041-0.978,5.487-3.63,6.222-6.747c0.735-3.117-0.268-6.587-2.551-8.827C30.024,27.247,31.767,23.796,31.812,20.385z"/>
	</g>
	<g>
		<path fill="#422150" d="M31.812,20.385H29.78c-0.045,3.412-1.878,7.369-4.972,8.74c2.289,2.24,3.295,5.71,2.558,8.827
			c-0.736,3.117-3.19,5.77-6.24,6.747c3.555,4.096,4.934,9.979,3.568,15.229c-1.365,5.249-5.436,9.715-10.536,11.56
			c-0.255,1.37-1.277,2.429-2.547,3.02c2.131-0.054,4.277-1.442,4.665-3.526c5.1-1.845,9.171-6.311,10.536-11.56
			c1.365-5.249-0.014-11.133-3.569-15.229c3.05-0.978,5.503-3.63,6.24-6.747c0.737-3.117-0.269-6.587-2.559-8.827
			C30.02,27.247,31.767,23.796,31.812,20.385z"/>
	</g>
</g>
<path fill="#371E40" d="M38.325,189.84c-0.004,0-0.007,0-0.012,0V75.149c0.08-0.198,0.133-0.424,0.12-0.715
	c-0.162-3.476,8.826-6.147,8.826-6.147s0,0-0.027-0.572c-3.543,0.129-6.524,0.985-8.919,2.036V0.479H25.237v189.979
	c-0.461,7.394-8.874,9.928-8.874,9.928c0.163-0.144,30.715-0.144,30.878,0C47.242,200.387,38.325,197.724,38.325,189.84z"/>
<g>
	<g>
		<path fill="#2C1B30" d="M69.592,0H0v26.272c2.691,3.534,6.122,6.442,10.26,8.028c1.897,0.727,4.41,1.001,5.637-0.609
			c-0.592,2.695-0.506,5.82,1.407,7.82c1.614,1.688,4.131,2.157,6.474,2.209c2.329,0.052,4.718-0.234,6.799-1.274
			c2.081-1.04,3.82-2.923,4.265-5.194c-0.06,2.267,2.542,3.864,4.814,3.647c1.405-0.134,2.681-0.739,3.877-1.508
			c1.838,0.154,3.682,0.104,5.324-0.673c2.263-1.072,3.766-4.093,2.34-6.141c2.771-0.568,5.442-1.604,7.88-3.029
			c1.513-0.884,2.972-1.951,3.923-3.415s1.321-3.393,0.588-4.977c-0.732-1.583-2.737-2.591-4.353-1.911
			c3.447-2.231,7.02-4.591,9.07-8.133C70.23,7.79,70.531,3.741,69.592,0z"/>
	</g>
	<g>
		<g>
			<path fill="#422150" d="M30.971,36.524c-0.444,2.271-2.183,4.154-4.264,5.194c-2.081,1.041-4.47,1.327-6.8,1.274
				c-0.117-0.002-0.235-0.011-0.353-0.016c1.311,0.521,2.798,0.711,4.223,0.743c2.329,0.052,4.718-0.234,6.799-1.274
				c1.203-0.601,2.282-1.491,3.073-2.567C32.146,39.324,30.93,38.082,30.971,36.524z"/>
		</g>
		<g>
			<path fill="#422150" d="M65.886,0c0.728,3.534,0.35,7.277-1.45,10.385c-2.051,3.542-5.624,5.902-9.071,8.133
				c1.616-0.681,3.62,0.327,4.353,1.911c0.732,1.584,0.363,3.513-0.588,4.977s-2.41,2.531-3.923,3.415
				c-2.439,1.424-5.109,2.461-7.88,3.029c1.426,2.048-0.077,5.069-2.34,6.141c-1.642,0.777-3.486,0.827-5.324,0.673
				c-1.004,0.646-2.069,1.157-3.215,1.39c0.917,0.623,2.101,0.951,3.208,0.845c1.405-0.134,2.681-0.739,3.877-1.508
				c1.838,0.154,3.682,0.104,5.324-0.673c2.263-1.072,3.766-4.093,2.34-6.141c2.771-0.568,5.442-1.604,7.88-3.029
				c1.513-0.884,2.972-1.951,3.923-3.415s1.321-3.393,0.588-4.977c-0.732-1.583-2.737-2.591-4.353-1.911
				c3.447-2.231,7.02-4.591,9.07-8.133C70.23,7.79,70.531,3.741,69.592,0H65.886z"/>
		</g>
	</g>
</g>
<path fill="#371E40" d="M283.007,186.292c-0.005,0-0.009,0-0.015,0V106.88c0.075,0.111,0.129,0.187,0.129,0.187
	s6.809-5.242,6.809-14.174c-0.648,0-0.648,0-0.648,0s-2.52,7.622-6.289,8.013V0.078h-16.404v186.99
	c-0.578,9.274-11.133,12.455-11.133,12.455c0.204-0.181,38.535-0.181,38.739,0C294.194,199.523,283.007,196.182,283.007,186.292z"/>
<g>
	<g>
		<path fill="#2C1B30" d="M241.59,0h94.396v50.649c-3.65,4.794-8.303,8.739-13.917,10.889c-2.573,0.986-5.981,1.358-7.646-0.826
			c0.803,3.655,0.686,7.895-1.908,10.608c-2.189,2.289-5.604,2.925-8.781,2.997c-3.16,0.071-6.4-0.317-9.224-1.729
			c-2.822-1.411-5.181-3.965-5.784-7.046c0.082,3.074-3.447,5.241-6.53,4.947c-1.905-0.182-3.636-1.001-5.259-2.045
			c-2.493,0.209-4.995,0.141-7.222-0.913c-3.069-1.454-5.108-5.552-3.174-8.33c-3.759-0.77-7.381-2.177-10.689-4.109
			c-2.052-1.198-4.03-2.646-5.321-4.632c-1.291-1.986-1.792-4.602-0.798-6.75c0.993-2.148,3.712-3.515,5.904-2.592
			c-4.676-3.026-9.522-6.228-12.304-11.032C240.725,25.58,240.315,5.075,241.59,0z"/>
	</g>
	<g>
		<g>
			<path fill="#422150" d="M293.977,64.556c0.603,3.081,2.962,5.635,5.784,7.046c2.823,1.412,6.063,1.799,9.224,1.729
				c0.158-0.003,0.318-0.016,0.479-0.022c-1.779,0.706-3.796,0.965-5.729,1.008c-3.16,0.071-6.4-0.317-9.224-1.729
				c-1.632-0.816-3.095-2.022-4.167-3.483C292.382,68.354,294.032,66.669,293.977,64.556z"/>
		</g>
		<g>
			<path fill="#422150" d="M246.617,15.013c-0.986,4.793-0.475,9.871,1.967,14.086c2.781,4.803,7.628,8.005,12.303,11.031
				c-2.191-0.923-4.91,0.443-5.903,2.592c-0.994,2.148-0.493,4.764,0.798,6.751c1.291,1.986,3.269,3.434,5.321,4.632
				c3.308,1.932,6.931,3.338,10.689,4.109c-1.935,2.777,0.104,6.876,3.174,8.33c2.227,1.054,4.729,1.123,7.222,0.913
				c1.361,0.876,2.807,1.569,4.361,1.885c-1.245,0.846-2.851,1.29-4.353,1.146c-1.905-0.182-3.636-1.001-5.259-2.045
				c-2.493,0.209-4.995,0.141-7.222-0.913c-3.069-1.454-5.108-5.552-3.174-8.33c-3.759-0.77-7.381-2.177-10.689-4.109
				c-2.052-1.198-4.03-2.646-5.321-4.632c-1.291-1.986-1.792-4.602-0.798-6.75c0.993-2.148,3.712-3.515,5.904-2.592
				c-4.676-3.026-9.522-6.228-12.304-11.032c-2.609-4.505-3.019-9.997-1.744-15.072H246.617z"/>
		</g>
	</g>
</g>
<path fill="#5C2873" d="M265.003,191.128c0,0-4.854-1.45-4.854-5.741c-0.002,0-0.004,0-0.006,0V0.506h-7.118v185.217
	c-0.251,4.024-4.83,5.404-4.83,5.404C248.282,191.05,264.914,191.05,265.003,191.128z"/>
<g>
	<path fill="#321D37" d="M292.889,34.841c-3.815-1.336-8.08-0.707-11.511,1.699c1.02-1.976,1.289-4.486,0.72-6.708
		c-0.178-0.696-0.455-1.394-0.947-1.819c0.533-0.365,1.047-0.975,1.297-1.638c3.247-8.619,0.545-16.822-6.666-15.796h-30.689
		c-2.745,2.667,1.088,12.094-1.024,15.499c-2.343,3.776-4.35,7.909-5.478,12.417c-1.128,4.508-1.337,9.423-0.144,13.907
		l6.202,11.243c-1.12,3.592,0.426,7.84,3.035,10.056c2.61,2.215,6.019,2.681,9.19,2.199c1.854-0.282,3.729-0.892,5.219-2.248
		s2.533-3.567,2.325-5.796c0.361,1.897,2.25,2.765,3.872,2.728c4.888-0.111,8.749-5.569,9.806-11.294
		c0.559-3.022,0.525-6.199-0.096-9.203c1.324,2.258,4.075,2.274,6.355,1.894c3.731-0.623,7.52-1.741,10.571-4.391
		c1.822-1.582,3.425-4.014,3.207-6.699C297.885,37.812,295.363,35.707,292.889,34.841z"/>
</g>
<path fill="#452254" d="M121.478,193.729c-0.002,0-0.004,0-0.007,0V3.865c0.589-1.634,3.016-3.034,5.154-3.99h-5.116
	c-0.013,0.005-0.026,0.01-0.039,0.015v-0.015h-7.118V64.88c-1.91-2.384-3.066-5.872-3.066-5.872s0,0-0.647,0
	c0,4.738,1.915,8.424,3.713,10.854v124.202c-0.25,4.024-4.83,5.404-4.83,5.404c0.088-0.078,16.721-0.078,16.809,0
	C126.332,199.47,121.478,198.02,121.478,193.729z"/>
<defs>
	<filter id="Adobe_OpacityMaskFilter" filterUnits="userSpaceOnUse" x="311.25" y="199.463" width="16.319" height="24.344">
		<feFlood  style="flood-color:white;flood-opacity:1" result="back"/>
		<feBlend  in="SourceGraphic" in2="back" mode="normal"/>
	</filter>
</defs>
<mask maskUnits="userSpaceOnUse" x="311.25" y="199.463" width="16.319" height="24.344" id="SVGID_2_">
	<g filter="url(#Adobe_OpacityMaskFilter)">
		<defs>
			<filter id="Adobe_OpacityMaskFilter_1_" filterUnits="userSpaceOnUse" x="311.25" y="199.463" width="16.319" height="24.344">
				<feFlood  style="flood-color:white;flood-opacity:1" result="back"/>
				<feBlend  in="SourceGraphic" in2="back" mode="normal"/>
			</filter>
		</defs>
		<mask maskUnits="userSpaceOnUse" x="311.25" y="199.463" width="16.319" height="24.344" id="SVGID_2_">
			<g filter="url(#Adobe_OpacityMaskFilter_1_)">
			</g>
		</mask>
		<linearGradient id="SVGID_3_" gradientUnits="userSpaceOnUse" x1="319.4102" y1="223.8066" x2="319.4102" y2="199.4629">
			<stop  offset="0.0037" style="stop-color:#000000"/>
			<stop  offset="1" style="stop-color:#FFFFFF"/>
		</linearGradient>
		<path mask="url(#SVGID_2_)" fill="url(#SVGID_3_)" d="M317.203,221.965c0-0.001-0.001-0.002-0.001-0.002l-5.892-18.145
			c0.006,0,0.01,0,0.016,0c-0.896-2.757,6.336-4.005,8.878-4.355l7.365,24.344C324.894,223.549,317.499,222.875,317.203,221.965z"/>
	</g>
</mask>
<linearGradient id="SVGID_4_" gradientUnits="userSpaceOnUse" x1="319.4102" y1="223.8066" x2="319.4102" y2="199.4629">
	<stop  offset="0.0037" style="stop-color:#FDE5D0"/>
	<stop  offset="1" style="stop-color:#D0716C"/>
</linearGradient>
<path fill="url(#SVGID_4_)" d="M317.203,221.965c0-0.001-0.001-0.002-0.001-0.002l-5.892-18.145c0.006,0,0.01,0,0.016,0
	c-0.896-2.757,6.336-4.005,8.878-4.355l7.365,24.344C324.894,223.549,317.499,222.875,317.203,221.965z"/>
<g>
	<defs>
		<filter id="Adobe_OpacityMaskFilter_2_" filterUnits="userSpaceOnUse" x="38.413" y="191.079" width="14.972" height="9.088">
			<feFlood  style="flood-color:white;flood-opacity:1" result="back"/>
			<feBlend  in="SourceGraphic" in2="back" mode="normal"/>
		</filter>
	</defs>
	<mask maskUnits="userSpaceOnUse" x="38.413" y="191.079" width="14.972" height="9.088" id="SVGID_5_">
		<g filter="url(#Adobe_OpacityMaskFilter_2_)">
			<defs>
				<filter id="Adobe_OpacityMaskFilter_3_" filterUnits="userSpaceOnUse" x="38.413" y="191.079" width="14.972" height="9.088">
					<feFlood  style="flood-color:white;flood-opacity:1" result="back"/>
					<feBlend  in="SourceGraphic" in2="back" mode="normal"/>
				</filter>
			</defs>
			<mask maskUnits="userSpaceOnUse" x="38.413" y="191.079" width="14.972" height="9.088" id="SVGID_5_">
				<g filter="url(#Adobe_OpacityMaskFilter_3_)">
				</g>
			</mask>
			<linearGradient id="SVGID_6_" gradientUnits="userSpaceOnUse" x1="45.8984" y1="200.167" x2="45.8984" y2="191.0791">
				<stop  offset="0.0037" style="stop-color:#000000"/>
				<stop  offset="1" style="stop-color:#FFFFFF"/>
			</linearGradient>
			<path mask="url(#SVGID_5_)" fill="url(#SVGID_6_)" d="M38.413,191.079c0.004,0.036,0.003,0.075,0.008,0.11
				c1.338,0.329,2.379,1.074,2.331,1.773l-0.505,2.607c2.028,2.708,5.086,4.104,6.376,4.597l1.295-7.09c0.002,0,0.004,0,0.006,0
				c0.349-1.459,5.459-1.956,5.459-1.956C52.623,191.065,43.028,191.088,38.413,191.079z"/>
		</g>
	</mask>
	<linearGradient id="SVGID_7_" gradientUnits="userSpaceOnUse" x1="45.8984" y1="200.167" x2="45.8984" y2="191.0791">
		<stop  offset="0.0037" style="stop-color:#FDE5D0"/>
		<stop  offset="1" style="stop-color:#D0716C"/>
	</linearGradient>
	<path fill="url(#SVGID_7_)" d="M38.413,191.079c0.004,0.036,0.003,0.075,0.008,0.11c1.338,0.329,2.379,1.074,2.331,1.773
		l-0.505,2.607c2.028,2.708,5.086,4.104,6.376,4.597l1.295-7.09c0.002,0,0.004,0,0.006,0c0.349-1.459,5.459-1.956,5.459-1.956
		C52.623,191.065,43.028,191.088,38.413,191.079z"/>
</g>
<g>
	<path fill-rule="evenodd" clip-rule="evenodd" fill="#3D2049" d="M317.538,191.836c-2.933,0-5.709,0.666-8.187,1.854
		c-2.357-1.749-5.277-2.785-8.438-2.785c-4.471,0-8.456,2.07-11.055,5.303c-3.871-3.142-8.749-5.09-14.075-5.284
		c-1.874-5.341-6.96-9.17-12.939-9.17c-6.514,0-11.967,4.542-13.364,10.631c-2.735,1.06-4.951,3.163-6.157,5.822
		c-1.271-0.465-2.621-0.768-4.022-0.884c0.002-0.081,0.003-0.163,0.003-0.245c0-6.125-4.966-11.09-11.09-11.09
		c-6.087,0-11.026,4.903-11.089,10.976c-4.622,0.466-8.691,2.804-11.441,6.242h127.68
		C332.819,200.823,327.636,191.836,317.538,191.836z"/>
</g>
<path fill-rule="evenodd" clip-rule="evenodd" fill="#371E40" d="M331.94,201.972c-0.249,0-0.497,0.007-0.743,0.02
	c-2.364-4.813-7.314-8.127-13.039-8.127c-5.921,0-11.014,3.544-13.273,8.627c-2.507-2.507-5.971-4.057-9.796-4.057
	c-2.144,0-4.173,0.486-5.984,1.355c-1.724-1.279-3.857-2.036-6.169-2.036c-3.269,0-6.182,1.513-8.081,3.876
	c-2.83-2.296-6.396-3.721-10.29-3.863c-1.37-3.903-5.088-6.703-9.46-6.703c-4.762,0-8.748,3.32-9.77,7.772
	c-2,0.773-3.62,2.312-4.501,4.255c-0.93-0.339-1.916-0.561-2.941-0.646c0.002-0.06,0.003-0.119,0.003-0.179
	c0-4.478-3.63-8.107-8.107-8.107c-4.449,0-8.062,3.585-8.106,8.023c-0.029,0.003-0.06,0.006-0.089,0.01
	c-4.307,0.466-7.487,4.262-7.487,8.594v2.175c0,4.79,3.884,8.674,8.673,8.674h113.063v-19.111
	C334.602,202.168,333.295,201.972,331.94,201.972z"/>
<path fill="#3D2049" d="M116.513,180.832c-3.391,0-6.514,1.113-9.055,2.976c-0.411-0.405-0.851-0.779-1.305-1.137
	c-2.61-2.055-5.894-3.29-9.473-3.29c-2.822,0-5.458,0.775-7.73,2.104c-0.155,0.073-0.307,0.144-0.47,0.222
	c-1.9-1.411-3.727-2.245-6.802-2.245c-3.076,0-6.816,1.668-8.91,4.273c-3.12-2.531-7.052-4.103-11.345-4.259
	c-1.511-4.305-5.396-7.391-10.43-7.391c-5.035,0-9.219,2.262-10.345,7.17c-2.205,0.854-4.275,2.302-5.248,4.445
	c-1.025-0.375-2.356-0.253-3.486-0.347c0.012-0.574-3.292-7.856-8.835-7.856c-4.921,0-8.299,3.42-8.572,7.647
	c-4.134,0.418-8.086,3.891-10.278,7.174c-0.598-0.127-1.098-0.194-1.852-0.194c-0.753,0-1.714,0.127-2.51,0.361v13.11h84.294h45.788
	c1.216-2.198,1.912-4.724,1.912-7.413C131.863,187.705,124.991,180.832,116.513,180.832z"/>
<g>
	<path fill-rule="evenodd" clip-rule="evenodd" fill="#371E40" d="M117.218,194.979c-2.932,0-5.708,0.666-8.187,1.855
		c-2.357-1.75-5.277-2.785-8.439-2.785c-4.47,0-8.456,2.069-11.054,5.302c-3.871-3.142-8.75-5.09-14.075-5.284
		c-1.875-5.34-6.96-9.17-12.94-9.17c-6.514,0-11.966,4.542-13.364,10.632c-2.736,1.06-4.952,3.162-6.158,5.821
		c-1.272-0.465-2.621-0.768-4.022-0.884c0.001-0.081,0.003-0.163,0.003-0.245c0-6.124-4.965-11.09-11.09-11.09
		c-6.086,0-11.026,4.904-11.088,10.976c-4.622,0.467-8.692,2.804-11.442,6.243h127.68
		C132.5,203.967,127.315,194.979,117.218,194.979z"/>
</g>
<g>
	<path fill-rule="evenodd" clip-rule="evenodd" fill="#311D37" d="M31.306,233.133h81.446c-3.261-8.411-9.707-14.139-17.127-14.139
		c-6.922,0-12.995,4.185-16.427,11.681c-3.25-4.19-7.621-5.962-12.429-5.962c-0.32,0-0.638,0.013-0.955,0.034
		c-3.035-8.489-9.389-14.333-16.737-14.333c-7.277,0-13.571,5.739-16.64,14.095C31.879,226.843,31.362,229.863,31.306,233.133z"/>
</g>
<path fill-rule="evenodd" clip-rule="evenodd" fill="#311D37" d="M335.938,224.397c-3.009-8.135-9.15-13.714-16.246-13.714
	c-7.43,0-13.821,6.111-16.657,14.874c-3.146-4.321-7.493-6.995-12.293-6.995c-2.69,0-5.237,0.84-7.511,2.338
	c-2.163-2.205-4.842-3.51-7.742-3.51c-4.102,0-7.758,2.608-10.142,6.683c-3.551-3.959-8.026-6.415-12.912-6.66
	c-1.72-6.731-6.386-11.559-11.872-11.559c-5.977,0-10.979,5.725-12.261,13.4c-2.51,1.336-4.543,3.986-5.649,7.338
	c-1.166-0.585-2.404-0.967-3.69-1.113c0.002-0.103,0.003-0.205,0.003-0.309c0-7.72-4.555-13.979-10.174-13.979
	c-5.584,0-10.116,6.181-10.173,13.834c-4.241,0.588-7.975,3.534-10.498,7.868h147.817V224.397z"/>
<path id="_x3C_Csoport_x3E__17_" fill="#281A2A" d="M-0.135,228.768c0.021,0.025,0.041,0.048,0.062,0.073
	c0.195,0.228,0.403,0.468,0.626,0.745c1.007,1.254,1.959,2.439,2.221,3.76c-0.095-0.823-0.247-1.622-0.401-2.433
	c-0.259-1.38-0.527-2.809-0.475-4.364c0.071-1.781,0.554-7.521,0.819-9.083c-0.037,4.412,0.114,5.858,1.679,9.939
	c0.828,2.165,1.978,3.961,3.614,5.654c-0.194-1.325-1.513-6.058-2.147-8.331c-0.28-1.005-0.37-1.33-0.358-1.332
	c0.395,0.729,0.978,1.543,1.614,2.431c1.199,1.672,2.558,3.566,2.667,5.233c-0.065-0.984-0.055-1.685-0.044-2.368
	c0.015-1.048,0.027-1.955-0.244-3.58c-0.821-4.91-3.282-8.702-5.092-9.4c0,0-0.025-0.053-0.026-0.054
	c0.001,0,0.064-0.023,0.065-0.023c1.931,0.747,5.943,4.131,7.4,6.567c1.492,2.477,1.59,2.812,2.354,5.424
	c1.125-3.33,1.266-4.624,1.415-5.993l0.007-0.066c0.036-0.329,0.072-0.666,0.125-1.036c0.5-3.541-0.252-6.044-1.21-8.718
	l-0.117-0.403c0.758,1.689,1.401,2.771,1.976,3.738c0.984,1.656,1.694,2.852,2.093,6.007c-0.482-4.187,1.697-10.205,3.619-15.516
	c0.668-1.848,1.301-3.594,1.842-5.059c-2.237,11.105-1.952,13.558-0.892,22.692l0.106,1.738c0.194-3.963,1.11-7.671,1.996-11.258
	l0.062-0.25c0.486-1.975,0.945-3.84,1.332-5.625c-0.079,1.611-0.157,2.845-0.225,3.918l-0.007,0.114
	c-0.112,1.737-0.2,3.109-0.219,5.086c-0.003,0.367-0.01,0.721-0.018,1.065c-0.022,1.022-0.043,1.975,0.084,2.917
	c0.172-2.985,0.318-5.447,0.334-5.492c1.131,8.376,3.811,11.835,4.061,12.701c0.715-1.15,0.593-1.981,0.346-3.65
	c-0.297-2.02-0.748-5.069-0.01-11.157c0.109,1.424,1.001,4.251,1.863,6.985c0.976,3.092,1.983,6.288,1.913,7.598
	c0.353-1.118-0.115-4.382-0.424-6.542c-0.025-0.178-0.025-0.183-0.005-0.313c0.142-0.962,0.271-3.688,0.389-8.103
	c0.056,0.212,0.09,0.262,0.116,0.262c0.001,0,0.002,0,0.003,0c0.11-0.097,0.024-1.857-0.06-3.56
	c-0.08-1.649-0.156-3.207-0.051-3.296c0.016,0,0.042,0.023,0.095,0.229l0.017,0.063c1.064,4.101,1.983,7.643,2.927,10.869
	c1.115,3.81,1.129,6.853,1.139,9.075c0.003,1.021,0.007,1.829,0.024,2.441c0.683-1.061,1.117-3.717,0.553-7.256
	c0.237,0.734,0.483,1.406,0.761,2.156c0.735,1.998,1.43,3.885,1.317,6.172c0.051-0.644,0.109-1.291,0.167-1.938
	c0.037-0.411,0.086-0.813,0.135-1.213c0.337-2.756,0.655-5.359-3.213-10.007c0.822,0.722,1.514,1.241,2.125,1.699
	c1.148,0.861,2.056,1.542,3.222,3.064l0.054,0.07c1.662,2.167,2.621,3.692,2.847,4.536c-0.146-1.251-0.278-2.074-0.395-2.801
	c-0.193-1.189-0.346-2.129-0.434-4.232c-0.159-3.521,0.967-6.86,1.069-6.876c-0.954,5.99,0.569,11.735,4.283,16.179
	c-0.423-1.837-0.119-3.594,0.175-5.295c0.161-0.936,0.312-1.814,0.403-2.671c0,0-0.048-0.042-0.049-0.042c0-0.089,0-0.198,0.106-0.3
	l-0.008,0.3c-0.023,2.065,0.798,3.833,1.605,5.569c0.472,1.021,0.961,2.077,1.168,3.197c-0.109-0.954-0.28-2.039-0.445-3.088
	c-0.254-1.614-0.542-3.446-0.761-5.575c-0.331-3.204-0.173-5.146,0.05-6.725c0.027,0,0.045,0.043,0.045,0.067
	c-0.035,1.988-0.093,5.314,2.729,9.368c1.377,1.978,2.705,4.371,3.079,8.454c-0.059-0.748,0.036-1.969,0.138-3.268
	c0.167-2.118,0.355-4.519,0.037-5.785c0.017,0.05,0.434,0.92,0.655,1.377c0.7,1.43,1.425,2.908,1.565,4.589
	c-0.082-0.992-0.109-1.252-0.174-1.847c-0.042-0.385-0.098-0.91-0.194-1.862c-0.256-2.508-1.498-5.472-3.375-6.287
	c1.767,0.543,3.488,2.197,5.116,4.92c1.04,1.732,1.507,3.844,1.959,5.884c0.219,0.987,0.414,1.872,0.568,2.72
	c-0.056-1.103-0.18-1.906-0.278-2.552c-0.152-1.003-0.272-1.794-0.075-2.879c0.264-1.435,0.785-2.816,1.401-4.452
	c0.188-0.497,0.383-1.011,0.676-1.55c-0.04,5.729,0.895,7.547,1.802,9.312c0.539,1.054,1.049,2.049,1.255,3.829
	c-0.681-6.147,0.479-12.293,3.186-16.86c-1.003,4.984-0.336,11.101,0.537,14.824c-0.402-1.764,2.59-7.472,4.106-9.683
	c-0.915,2.963-1.002,8.341,0.286,10.552c0.546-0.545,0.631-0.479,1.229-2.195c0.256-0.72,0.385-2.656,0.856-6.354
	c0.472,1.068,1.195,4.322,1.583,5.433l0.028,0.078c0.25,0.719,0.533,1.532,0.74,2.287c1.605-2.587,1.554-6.45-0.163-12.526
	c0.579,1.508,1.245,2.805,1.892,4.065c1.354,2.642,2.524,4.923,2.381,8.238c0.456-1.443,0.342-3.862,0.265-5.504
	c-0.021-0.443,0.001-0.957,0.025-1.501l0.003-0.076c0.064-1.436,0.137-3.061-0.409-4.075c1.181,1.796,2.302,3.996,3.243,6.364
	c0.532,1.354,0.708,2.766,0.877,4.131c0.07,0.556,0.15,1.187,0.161,1.792c1.689-4.529,0.078-8.51-0.452-9.817l0.019-0.205
	c2.275,3.609,3.183,8.17,3.068,11.089c0.051-0.645,0.109-1.292,0.167-1.937c0.287-3.203,0.585-6.516-0.045-9.815
	c-0.469-2.469-1.861-7.008-5.908-9.685c1.641,0.721,3.592,2.271,4.671,3.43c1.49,1.614,1.991,2.49,2.689,3.712l0.392,0.682
	c1.229,2.104,1.626,2.95,2.285,5.326c0.179,0.637,0.287,1.135,0.395,1.629c0.16,0.742,0.326,1.511,0.692,2.867
	c0.01-0.512,0.015-0.98,0.018-1.416c0.032-3.104,0.046-4.521,2.064-7.162c-2.415,3.353,0.543,8.562,2.44,10.849
	c-0.165-0.712-0.347-1.388-0.526-2.051l-0.027-0.101c-0.539-1.987-1.047-3.864-0.846-6.141c0.341,2.673,0.983,3.418,1.954,4.545
	c0.195,0.228,0.403,0.468,0.626,0.745c1.007,1.254,1.959,2.439,2.221,3.76c-0.095-0.823-0.247-1.622-0.401-2.433
	c-0.259-1.38-0.527-2.809-0.475-4.364c0.071-1.781,0.554-7.521,0.819-9.083c-0.037,4.412,0.114,5.858,1.678,9.939
	c0.829,2.165,1.979,3.961,3.614,5.654c-0.194-1.325-1.513-6.058-2.147-8.331c-0.28-1.005-0.37-1.33-0.358-1.332
	c0.395,0.729,0.978,1.543,1.614,2.431c1.199,1.672,2.558,3.566,2.667,5.233c-0.065-0.984-0.055-1.685-0.044-2.368
	c0.015-1.048,0.027-1.955-0.244-3.58c-0.821-4.91-3.282-8.702-5.092-9.4c0,0-0.025-0.053-0.026-0.054
	c0.001,0,0.064-0.023,0.065-0.023c1.931,0.747,5.943,4.131,7.4,6.567c1.492,2.477,1.59,2.812,2.354,5.424
	c1.125-3.33,1.266-4.624,1.415-5.993l0.007-0.066c0.036-0.329,0.072-0.666,0.125-1.036c0.5-3.541-0.252-6.044-1.21-8.718
	l-0.117-0.403c0.758,1.689,1.401,2.771,1.976,3.738c0.984,1.656,1.694,2.852,2.093,6.007c-0.482-4.187,1.697-10.205,3.619-15.516
	c0.668-1.848,1.301-3.594,1.842-5.059c-2.237,11.105-1.952,13.558-0.892,22.692l0.106,1.738c0.194-3.963,1.11-7.671,1.996-11.258
	l0.062-0.25c0.486-1.975,0.944-3.84,1.332-5.625c-0.079,1.611-0.157,2.845-0.225,3.918l-0.007,0.114
	c-0.112,1.737-0.2,3.109-0.219,5.086c-0.003,0.367-0.01,0.721-0.018,1.065c-0.022,1.022-0.043,1.976,0.084,2.917
	c0.172-2.985,0.318-5.447,0.333-5.492c1.131,8.376,3.812,11.835,4.061,12.701c0.716-1.15,0.593-1.981,0.346-3.65
	c-0.297-2.02-0.748-5.069-0.01-11.157c0.109,1.424,1.001,4.251,1.863,6.985c0.976,3.092,1.983,6.288,1.913,7.598
	c0.353-1.118-0.115-4.382-0.424-6.542c-0.025-0.178-0.025-0.183-0.005-0.313c0.142-0.962,0.271-3.688,0.389-8.103
	c0.056,0.212,0.09,0.262,0.116,0.262c0.001,0,0.002,0,0.003,0c0.11-0.097,0.024-1.857-0.06-3.56
	c-0.08-1.649-0.156-3.207-0.051-3.296c0.016,0,0.042,0.023,0.095,0.229l0.017,0.063c1.064,4.101,1.983,7.643,2.926,10.869
	c1.116,3.81,1.129,6.853,1.14,9.075c0.003,1.021,0.006,1.829,0.024,2.441c0.683-1.061,1.117-3.717,0.553-7.256
	c0.237,0.734,0.483,1.406,0.761,2.156c0.735,1.998,1.43,3.885,1.317,6.172c0.052-0.644,0.109-1.291,0.168-1.938
	c0.037-0.411,0.086-0.813,0.135-1.213c0.337-2.756,0.655-5.359-3.213-10.007c0.822,0.722,1.514,1.241,2.125,1.699
	c1.149,0.861,2.056,1.542,3.223,3.064l0.054,0.07c1.662,2.167,2.621,3.692,2.846,4.536c-0.145-1.251-0.277-2.074-0.394-2.801
	c-0.193-1.189-0.346-2.129-0.434-4.232c-0.159-3.521,0.967-6.86,1.069-6.876c-0.954,5.99,0.569,11.735,4.283,16.179
	c-0.423-1.837-0.119-3.594,0.175-5.295c0.161-0.936,0.312-1.814,0.403-2.671c0,0-0.048-0.042-0.049-0.042c0-0.089,0-0.198,0.106-0.3
	l-0.008,0.3c-0.023,2.065,0.798,3.833,1.604,5.569c0.473,1.021,0.961,2.077,1.168,3.197c-0.109-0.954-0.28-2.039-0.445-3.088
	c-0.254-1.614-0.542-3.446-0.761-5.575c-0.331-3.204-0.173-5.146,0.05-6.725c0.027,0,0.045,0.043,0.045,0.067
	c-0.035,1.988-0.093,5.314,2.729,9.368c1.377,1.978,2.705,4.371,3.079,8.454c-0.059-0.748,0.036-1.969,0.138-3.268
	c0.167-2.118,0.355-4.519,0.037-5.785c0.017,0.05,0.433,0.92,0.655,1.377c0.7,1.43,1.425,2.908,1.564,4.589
	c-0.081-0.992-0.109-1.252-0.173-1.847c-0.042-0.385-0.098-0.91-0.194-1.862c-0.256-2.508-1.498-5.472-3.375-6.287
	c1.766,0.543,3.487,2.197,5.116,4.92c1.041,1.732,1.507,3.844,1.959,5.884c0.219,0.987,0.413,1.872,0.567,2.72
	c-0.056-1.103-0.179-1.906-0.278-2.552c-0.151-1.003-0.271-1.794-0.074-2.879c0.264-1.435,0.784-2.816,1.4-4.452
	c0.188-0.497,0.383-1.011,0.677-1.55c-0.04,5.729,0.895,7.547,1.802,9.312c0.54,1.054,1.049,2.049,1.256,3.829
	c-0.681-6.147,0.479-12.293,3.187-16.86c-1.004,4.984-0.336,11.101,0.536,14.824c-0.402-1.764,2.59-7.472,4.105-9.683
	c-0.915,2.963-1.001,8.341,0.286,10.552c0.547-0.545,0.632-0.479,1.229-2.195c0.256-0.72,0.386-2.656,0.856-6.354
	c0.473,1.068,1.195,4.322,1.584,5.433l0.027,0.078c0.25,0.719,0.534,1.532,0.74,2.287c1.605-2.587,1.554-6.45-0.162-12.526
	c0.578,1.508,1.244,2.805,1.892,4.065c1.354,2.642,2.524,4.923,2.381,8.238c0.456-1.443,0.342-3.862,0.265-5.504
	c-0.021-0.443,0.001-0.957,0.025-1.501l0.003-0.076c0.064-1.436,0.138-3.061-0.408-4.075c1.181,1.796,2.302,3.996,3.243,6.364
	c0.531,1.354,0.707,2.766,0.877,4.131c0.07,0.556,0.15,1.187,0.161,1.792c1.688-4.529,0.078-8.51-0.452-9.817l0.02-0.205
	c2.274,3.609,3.183,8.17,3.068,11.089c0.051-0.645,0.108-1.292,0.167-1.937c0.287-3.203,0.585-6.516-0.045-9.815
	c-0.469-2.469-1.861-7.008-5.907-9.685c1.641,0.721,3.591,2.271,4.67,3.43c1.49,1.614,1.991,2.49,2.689,3.712l0.393,0.682
	c1.229,2.104,1.626,2.95,2.284,5.326c0.18,0.637,0.288,1.135,0.395,1.629c0.16,0.742,0.326,1.511,0.692,2.867
	c0.01-0.512,0.015-0.98,0.018-1.416c0.032-3.104,0.046-4.521,2.064-7.162c-2.415,3.353,0.543,8.562,2.44,10.849
	c-0.164-0.712-0.347-1.388-0.525-2.051l-0.028-0.101c-0.538-1.987-1.047-3.864-0.846-6.141c0.342,2.673,0.983,3.418,1.954,4.545
	c0.195,0.228,0.403,0.468,0.626,0.745c1.007,1.254,1.959,2.439,2.221,3.76c-0.095-0.823-0.247-1.622-0.401-2.433
	c-0.259-1.38-0.527-2.809-0.475-4.364c0.071-1.781,0.554-7.521,0.819-9.083c-0.036,4.412,0.114,5.858,1.679,9.939
	c0.828,2.165,1.978,3.961,3.613,5.654c-0.193-1.325-1.513-6.058-2.146-8.331c-0.28-1.005-0.37-1.33-0.358-1.332
	c0.395,0.729,0.978,1.543,1.614,2.431c1.198,1.672,2.558,3.566,2.667,5.233c-0.064-0.984-0.055-1.685-0.045-2.368
	c0.015-1.048,0.027-1.955-0.243-3.58c-0.821-4.91-3.282-8.702-5.093-9.4c0,0-0.025-0.053-0.025-0.054
	c0.001,0,0.063-0.023,0.064-0.023c1.932,0.747,5.943,4.131,7.4,6.567c1.491,2.477,1.59,2.812,2.354,5.424
	c1.125-3.33,1.266-4.624,1.415-5.993l0.007-0.066c0.036-0.329,0.072-0.666,0.125-1.036c0.5-3.541-0.252-6.044-1.21-8.718
	l-0.117-0.403c0.758,1.689,1.401,2.771,1.976,3.738c0.983,1.656,1.694,2.852,2.093,6.007c-0.481-4.187,1.697-10.205,3.619-15.516
	c0.669-1.848,1.301-3.594,1.842-5.059c-2.237,11.105-1.952,13.558-0.893,22.692l0.106,1.738c0.194-3.963,1.11-7.671,1.996-11.258
	l0.062-0.25c0.486-1.975,0.945-3.84,1.332-5.625c-0.078,1.611-0.156,2.845-0.225,3.918l-0.007,0.114
	c-0.112,1.737-0.2,3.109-0.219,5.086c-0.003,0.367-0.01,0.721-0.019,1.065c-0.022,1.022-0.043,1.975,0.084,2.917
	c0.172-2.985,0.318-5.447,0.334-5.492c1.132,8.376,3.812,11.835,4.061,12.701c0.716-1.15,0.593-1.981,0.347-3.65
	c-0.298-2.02-0.748-5.069-0.011-11.157c0.109,1.424,1.001,4.251,1.863,6.985c0.976,3.092,1.983,6.288,1.912,7.598
	c0.354-1.118-0.114-4.382-0.424-6.542c-0.025-0.178-0.025-0.183-0.006-0.313c0.143-0.962,0.271-3.688,0.39-8.103
	c0.057,0.212,0.09,0.262,0.116,0.262c0.001,0,0.002,0,0.003,0c0.11-0.097,0.023-1.857-0.06-3.56
	c-0.08-1.649-0.156-3.207-0.051-3.296c0.016,0,0.042,0.023,0.096,0.229l0.016,0.063c1.064,4.101,1.984,7.643,2.927,10.869
	c1.115,3.81,1.13,6.853,1.14,9.075c0.003,1.021,0.007,1.829,0.023,2.441c0.684-1.061,1.117-3.717,0.554-7.256
	c0.236,0.734,0.482,1.406,0.76,2.156c0.736,1.998,1.43,3.885,1.317,6.172c0.052-0.644,0.109-1.291,0.168-1.938
	c0.037-0.411,0.086-0.813,0.135-1.213c0.337-2.756,0.655-5.359-3.213-10.007c0.822,0.722,1.515,1.241,2.125,1.699
	c1.148,0.861,2.056,1.542,3.223,3.064l0.054,0.07c1.662,2.167,2.621,3.692,2.847,4.536c-0.146-1.251-0.278-2.074-0.395-2.801
	c-0.193-1.189-0.346-2.129-0.434-4.232c-0.159-3.521,0.967-6.86,1.068-6.876c-0.953,5.99,0.569,11.735,4.283,16.179
	c-0.424-1.837-0.119-3.594,0.175-5.295c0.161-0.936,0.312-1.814,0.403-2.671c-0.001,0-0.049-0.042-0.049-0.042
	c0-0.089,0-0.198,0.105-0.3l-0.008,0.3c-0.023,2.065,0.798,3.833,1.604,5.569c0.473,1.021,0.961,2.077,1.168,3.197
	c-0.109-0.954-0.28-2.039-0.445-3.088c-0.254-1.614-0.542-3.446-0.761-5.575c-0.331-3.204-0.174-5.146,0.05-6.725
	c0.027,0,0.046,0.043,0.046,0.067c-0.035,1.988-0.094,5.314,2.729,9.368c1.378,1.978,2.705,4.371,3.079,8.454
	c-0.059-0.748,0.036-1.969,0.138-3.268c0.167-2.118,0.355-4.519,0.037-5.785c0.017,0.05,0.434,0.92,0.654,1.377
	c0.7,1.43,1.425,2.908,1.565,4.589c-0.082-0.992-0.109-1.252-0.174-1.847c-0.042-0.385-0.098-0.91-0.194-1.862
	c-0.256-2.508-1.498-5.472-3.375-6.287c1.767,0.543,3.487,2.197,5.116,4.92c1.04,1.732,1.507,3.844,1.959,5.884
	c0.219,0.987,0.413,1.872,0.567,2.72c-0.056-1.103-0.18-1.906-0.278-2.552c-0.151-1.003-0.271-1.794-0.074-2.879
	c0.264-1.435,0.784-2.816,1.4-4.452c0.188-0.497,0.383-1.011,0.677-1.55c-0.04,5.729,0.895,7.547,1.802,9.312
	c0.54,1.054,1.049,2.049,1.256,3.829c-0.681-6.147,0.479-12.293,3.186-16.86c-1.003,4.984-0.336,11.101,0.537,14.824
	c-0.402-1.764,2.59-7.472,4.105-9.683c-0.915,2.963-1.001,8.341,0.286,10.552c0.546-0.545,0.632-0.479,1.229-2.195
	c0.256-0.72,0.386-2.656,0.856-6.354c0.473,1.068,1.195,4.322,1.584,5.433l0.027,0.078c0.25,0.719,0.533,1.532,0.74,2.287
	c1.605-2.587,1.554-6.45-0.162-12.526c0.578,1.508,1.244,2.805,1.892,4.065c1.354,2.642,2.524,4.923,2.381,8.238
	c0.456-1.443,0.342-3.862,0.265-5.504c-0.021-0.443,0.001-0.957,0.025-1.501l0.003-0.076c0.064-1.436,0.138-3.061-0.408-4.075
	c1.181,1.796,2.302,3.996,3.243,6.364c0.531,1.354,0.707,2.766,0.877,4.131c0.07,0.556,0.15,1.187,0.161,1.792
	c1.688-4.529,0.077-8.51-0.452-9.817l0.02-0.205c2.274,3.609,3.183,8.17,3.068,11.089c0.051-0.645,0.108-1.292,0.167-1.937
	c0.287-3.203,0.585-6.516-0.045-9.815c-0.47-2.469-1.861-7.008-5.908-9.685c1.642,0.721,3.592,2.271,4.671,3.43
	c1.49,1.614,1.991,2.49,2.689,3.712l0.393,0.682c1.229,2.104,1.626,2.95,2.284,5.326c0.18,0.637,0.287,1.135,0.395,1.629
	c0.16,0.742,0.326,1.511,0.692,2.867c0.01-0.512,0.015-0.98,0.018-1.416c0.032-3.104,0.046-4.521,2.064-7.162
	c-2.415,3.353,0.543,8.562,2.44,10.849c-0.165-0.712-0.348-1.388-0.526-2.051l-0.027-0.101c-0.538-1.987-1.047-3.864-0.846-6.141
	c0.341,2.673,0.983,3.418,1.954,4.545c0.195,0.228,0.403,0.468,0.626,0.745c1.007,1.254,1.959,2.439,2.221,3.76
	c-0.096-0.823-0.247-1.622-0.401-2.433c-0.259-1.38-0.527-2.809-0.475-4.364c0.071-1.781,0.554-7.521,0.819-9.083
	c-0.037,4.412,0.114,5.858,1.679,9.939c0.828,2.165,1.978,3.961,3.613,5.654c-0.194-1.325-1.513-6.058-2.146-8.331
	c-0.28-1.005-0.37-1.33-0.358-1.332c0.395,0.729,0.978,1.543,1.613,2.431c1.199,1.672,2.559,3.566,2.668,5.233
	c-0.065-0.984-0.055-1.685-0.045-2.368c0.015-1.048,0.027-1.955-0.243-3.58c-0.821-4.91-3.282-8.702-5.093-9.4
	c0,0-0.025-0.053-0.025-0.054c0.001,0,0.063-0.023,0.064-0.023c1.932,0.747,5.943,4.131,7.4,6.567
	c1.491,2.477,1.59,2.812,2.354,5.424c1.125-3.33,1.266-4.624,1.415-5.993l0.007-0.066c0.036-0.329,0.072-0.666,0.125-1.036
	c0.5-3.541-0.252-6.044-1.21-8.718l-0.117-0.403c0.758,1.689,1.4,2.771,1.976,3.738c0.983,1.656,1.694,2.852,2.093,6.007
	c-0.481-4.187,1.697-10.205,3.619-15.516c0.175-0.482,0.347-0.957,0.515-1.423v4.046c-0.531,4.158-0.431,6.993,0,11.135v15.684
	H-0.135V228.768z"/>
<path fill="#371E40" d="M194.467,161.522c0.188-0.588,0.802-2.74,0.585-4.912h-8.394l-0.154,0.95
	c-0.767,4.716,1.426,9.493,5.615,11.79c0.475,0.26,0.889,0.523,1.211,0.791c2.226,1.846,3.45,10.34,3.45,10.34h1.245
	c0-4.999-1.352-9.442-1.352-9.442C195.171,167.031,194.623,162.956,194.467,161.522z"/>
<g>
	<path fill="#371E40" d="M173.082,175.655c-0.024-0.009-0.05,0.006-0.072,0.019c-0.086,0.053-0.158,0.123-0.24,0.181
		c-1.383-2.057-2.74-4.172-3.383-6.559c-0.039-0.144-0.075-0.294-0.049-0.44c0.044-0.235,0.237-0.409,0.419-0.564
		c3.018-2.581,5.941-5.271,8.764-8.064l-5.982-1.512c-2.172,2.176-2.223,6.087-4.297,8.354c-0.181,0.197-0.368,0.409-0.42,0.671
		c-0.047,0.232,0.019,0.47,0.086,0.697c0.691,2.321,1.607,4.576,2.732,6.722c0.288,0.551,0.944,1.855,1.177,1.842l-0.005,0.01
		c0.7,0.022,1.38-0.212,2.041-0.444c-0.244-0.293-0.487-0.587-0.731-0.88C173.109,175.674,173.098,175.66,173.082,175.655z"/>
</g>
<path fill="#371E40" d="M199.756,171.039c-1.503-4.008-2.051-8.083-2.207-9.517c0.237-0.743,1.164-3.991,0.217-6.614
	c0.087-0.043,0.163-0.073,0.255-0.122c2.256-1.192,1.873-2.821,1.873-2.821c-1.696-0.08-2.829,0.361-3.56,0.841
	c-1.002-0.852-2.496-1.409-4.708-1.409c-3.122,0-5.207,0-6.618,0l-3.09-0.021c-0.011,0-0.022-0.003-0.033-0.003
	c-0.566-0.07-2.286-0.392-4.008-1.754c-0.221-0.255-0.727-0.971-0.916-2.206l-0.138-2.974c0.329-0.36,0.522-0.789,0.57-1.248
	c0.383-0.123,0.827-0.303,1.354-0.581c2.255-1.193,1.873-2.821,1.873-2.821c-0.238-0.012-0.458-0.006-0.674,0.002
	c0.033-0.017,0.066-0.032,0.1-0.049c0.015-0.008,0.027-0.015,0.042-0.022c0.009-0.004,0.018-0.009,0.026-0.014
	c0.062-0.031,0.121-0.064,0.182-0.098c0.021-0.012,0.041-0.023,0.062-0.035c0.079-0.045,0.157-0.092,0.234-0.14
	c0.809-0.506,1.519-1.184,2.084-1.999c0.775-0.03,1.532-0.338,2.107-0.902c0.145-0.141,0.278-0.3,0.397-0.473
	c0.566-0.824,0.691-1.822,0.429-2.712c-0.05-0.166-0.111-0.327-0.188-0.483c0.013,0.103,0.021,0.205,0.024,0.309
	c0.033,0.799-0.184,1.614-0.672,2.324c-0.448,0.653-1.071,1.101-1.757,1.371c0.087-0.152,0.184-0.297,0.26-0.459
	c0.103-0.217,0.193-0.436,0.272-0.656c0.793-2.216,0.432-4.613-0.827-6.467c0.918,1.771,1.087,3.906,0.319,5.878
	c-0.062,0.158-0.128,0.314-0.202,0.47c-0.258,0.545-0.578,1.041-0.945,1.486c-0.008,0.001-0.017,0.001-0.024,0.002
	c0.062-0.176,0.111-0.358,0.141-0.55c0.154-0.988-0.164-1.942-0.787-2.631c-0.116-0.127-0.242-0.246-0.378-0.354
	c0.056,0.087,0.107,0.176,0.155,0.269c0.376,0.705,0.533,1.534,0.401,2.386c-0.215,1.375-1.135,2.466-2.334,2.96
	c-0.032,0.014-0.064,0.026-0.097,0.038c-0.026,0.01-0.053,0.02-0.08,0.029c0.001,0,0.003,0,0.004,0
	c-0.053,0.02-0.104,0.039-0.157,0.058c-0.065,0.023-0.132,0.045-0.198,0.066c-0.06,0.019-0.118,0.036-0.178,0.054
	c-0.126,0.036-0.255,0.069-0.383,0.1v0.001h-0.001c-0.771,0.182-1.508,0.492-2.177,0.921c-0.108,0.069-0.213,0.146-0.318,0.222
	c-0.473-0.176-0.999-0.284-1.564-0.284c-0.564,0-1.091,0.108-1.563,0.284c-0.104-0.075-0.209-0.152-0.318-0.222
	c-0.668-0.429-1.405-0.739-2.177-0.921h-0.001v-0.001c-0.128-0.03-0.256-0.063-0.383-0.1c-0.059-0.018-0.118-0.035-0.178-0.054
	c-0.066-0.021-0.133-0.043-0.198-0.066c-0.053-0.019-0.104-0.038-0.157-0.058c0.001,0,0.003,0,0.004,0
	c-0.027-0.01-0.054-0.02-0.081-0.029c-0.033-0.012-0.064-0.024-0.096-0.038c-1.199-0.494-2.12-1.585-2.334-2.96
	c-0.133-0.852,0.025-1.681,0.4-2.386c0.049-0.093,0.101-0.182,0.156-0.269c-0.136,0.108-0.262,0.228-0.378,0.354
	c-0.623,0.688-0.941,1.643-0.787,2.631c0.03,0.191,0.08,0.374,0.141,0.55c-0.008-0.001-0.017-0.001-0.025-0.002
	c-0.367-0.445-0.688-0.941-0.945-1.486c-0.074-0.155-0.141-0.312-0.202-0.47c-0.767-1.972-0.598-4.106,0.319-5.878
	c-1.258,1.854-1.62,4.251-0.826,6.467c0.079,0.221,0.17,0.439,0.272,0.656c0.076,0.162,0.173,0.307,0.259,0.459
	c-0.686-0.271-1.308-0.718-1.757-1.371c-0.488-0.71-0.705-1.525-0.672-2.324c0.004-0.104,0.012-0.206,0.024-0.309
	c-0.076,0.156-0.138,0.317-0.188,0.483c-0.263,0.89-0.137,1.888,0.429,2.712c0.119,0.173,0.252,0.332,0.397,0.473
	c0.575,0.564,1.332,0.872,2.107,0.902c0.566,0.815,1.275,1.493,2.084,1.999c0.078,0.048,0.156,0.095,0.234,0.14
	c0.021,0.012,0.042,0.023,0.062,0.035c0.061,0.033,0.121,0.066,0.182,0.098c0.009,0.005,0.018,0.01,0.026,0.014
	c0.015,0.008,0.028,0.015,0.042,0.022c0.033,0.017,0.066,0.032,0.1,0.049c-0.212-0.008-0.427-0.013-0.66-0.002
	c0,0-0.382,1.628,1.874,2.821c0.52,0.274,0.958,0.453,1.338,0.576c0.045,0.448,0.232,0.866,0.548,1.222l-0.012,0.189
	c-0.211,1.05-1.243,7.071-0.305,10.874c0,0,0.293,0.887,0.244,2.061c0,0.006,0.001,0.014,0,0.02
	c-0.143,1.033-0.204,3.006,1.023,4.561c0.194,0.246,0.417,0.462,0.653,0.659c0.234,0.285,0.873,1.184,1.135,2.662
	c0.318,1.584,0.542,3.691,0.382,6.316c-0.392,6.402-0.925,8.731-0.925,8.731h1.352c0.745-6.541,2.881-16.058,2.881-16.058
	s5.021,0.927,10.972,0.582c1.674,1.648,5.806,3.298,8.02,5.136c2.226,1.846,3.45,10.34,3.45,10.34h1.245
	C201.107,175.482,199.756,171.039,199.756,171.039z"/>
<g>
	<g>
		<path fill="#371E40" d="M58.69,0c-0.971,2.387-1.543,4.933-1.615,7.513c-0.214,7.692,3.939,15.358,10.496,19.371
			c-4.925,1.935-9.138,5.632-11.7,10.268c-1.221,2.209-2.079,4.869-1.208,7.239c0.603,1.638,1.954,2.894,3.415,3.846
			c4.011,2.612,9.208,3.311,13.765,1.85c-1.044,2.742-2.07,5.905-0.69,8.494c1.032,1.937,3.308,3.047,5.498,2.939
			c2.189-0.108,4.24-1.32,5.633-3.015c0.541,4.973,5.741,8.92,10.667,8.096c1.292-0.216,2.588-0.749,3.416-1.766
			c0.827-1.017,1.057-2.585,0.289-3.647c2.746,3.292,7.554,4.074,11.798,3.492c5.145-0.706,10.279-3.338,12.784-7.894
			c2.505-4.556,1.546-11.099-2.856-13.857c4.379,0.208,8.045-3.193,10.791-6.617c1.92-2.396,3.719-5.021,4.329-8.032
			c0.61-3.011-0.225-6.493-2.725-8.273c1.35,1.353,3.667,0.023,4.775-1.535c1.916-2.693,2.745-6.141,2.262-9.413
			c5.81,2.953,12.994-0.463,17.41-5.26c1.064-1.156,2.04-2.434,2.839-3.798H58.69z"/>
	</g>
	<g>
		<g>
			<path fill="#57266B" d="M68.281,49.065c-2.45,0.786-5.081,0.927-7.617,0.503c2.21,0.912,4.613,1.332,7.002,1.231
				C67.859,50.21,68.067,49.628,68.281,49.065z"/>
		</g>
		<g>
			<path fill="#57266B" d="M78.721,57.483c-1.393,1.695-3.444,2.907-5.633,3.015c-0.048,0.002-0.097-0.004-0.146-0.003
				c1.083,0.713,2.407,1.087,3.707,1.023c1.084-0.054,2.135-0.38,3.088-0.9C79.206,59.651,78.842,58.596,78.721,57.483z"/>
		</g>
		<g>
			<path fill="#57266B" d="M134.251,8.038c0.482,3.272-0.347,6.719-2.263,9.413c-1.108,1.558-3.424,2.888-4.775,1.535
				c2.5,1.78,3.334,5.263,2.725,8.273s-2.408,5.636-4.329,8.031c-2.745,3.424-6.411,6.825-10.791,6.617
				c4.402,2.759,5.361,9.302,2.857,13.857c-2.505,4.556-7.639,7.188-12.784,7.894c-1.605,0.221-3.292,0.245-4.916,0.012
				c2.556,1.172,5.641,1.397,8.478,1.008c5.145-0.706,10.279-3.338,12.784-7.894c2.505-4.556,1.546-11.099-2.856-13.857
				c4.379,0.208,8.045-3.193,10.791-6.617c1.92-2.396,3.719-5.021,4.329-8.032c0.61-3.011-0.225-6.493-2.725-8.273
				c1.35,1.353,3.667,0.023,4.775-1.535c1.913-2.689,2.742-6.131,2.264-9.398C136.594,8.946,135.396,8.62,134.251,8.038z"/>
		</g>
		<g>
			<path fill="#57266B" d="M153.855,0c-0.662,0.982-1.401,1.916-2.195,2.778c-3.538,3.843-8.85,6.79-13.811,6.296
				c5.803,2.919,12.965-0.49,17.372-5.277c1.064-1.156,2.04-2.434,2.839-3.798H153.855z"/>
		</g>
		<g>
			<path fill="#57266B" d="M93.093,60.167c0.768,1.063,0.539,2.631-0.289,3.647s-2.124,1.55-3.416,1.766
				c-0.639,0.107-1.282,0.13-1.92,0.084c1.685,0.866,3.602,1.25,5.481,0.935c1.292-0.216,2.588-0.749,3.416-1.766
				c0.432-0.531,0.695-1.211,0.745-1.891C95.561,62.354,94.168,61.455,93.093,60.167z"/>
		</g>
	</g>
</g>
<g>
	<g>
		<path fill="#371E40" d="M165.389,0c-0.839,6.079,1.828,12.71,7.063,16.024c2.676,1.693,5.812,2.554,8.958,2.901
			c4.302,0.474,8.703,0.02,12.816-1.325c-3.125,0.815-5.547,3.811-5.688,7.038c-0.142,3.226,2.01,6.422,5.053,7.506
			c-2.335,0.147-4.072,2.686-3.745,5.001c0.327,2.315,2.34,4.168,4.605,4.75c2.265,0.582,4.701,0.057,6.799-0.979
			c-3.601,4.402-2.978,11.64,1.323,15.362s11.553,3.299,15.393-0.896c-1.447,4.222,2.078,9.342,6.539,9.496
			c4.462,0.154,8.331-4.711,7.179-9.023c3.293,1.624,7.284,0.292,10.419-1.621c4.212-2.57,7.785-6.178,10.315-10.414
			c0.868-1.455,1.637-3.097,1.425-4.778c-0.118-0.937-0.668-1.834-1.412-2.395c2.839,0.347,5.869-0.783,7.666-3.029
			c2.237-2.796,2.372-7.081,0.315-10.013c2.422-0.01,4.494-1.956,5.418-4.194c0.923-2.239,0.936-4.734,0.934-7.156
			c4.711,1.52,10.12-0.568,13.288-4.37c1.876-2.252,3.021-4.999,3.579-7.887H165.389z"/>
	</g>
	<g>
		<g>
			<path fill="#57266B" d="M269.521,10.615c0,0.706-0.003,1.418-0.027,2.128c2.955,0.135,5.96-0.931,8.363-2.766
				C275.226,11.157,272.257,11.497,269.521,10.615z"/>
		</g>
		<g>
			<path fill="#57266B" d="M193.539,32.121c0.684-0.903,1.673-1.546,2.809-1.618c-3.042-1.084-5.193-4.28-5.053-7.507
				c0.087-1.987,1.043-3.883,2.492-5.24c-2.906,0.972-5.114,3.811-5.248,6.882C188.398,27.845,190.525,31.018,193.539,32.121z"/>
		</g>
		<g>
			<path fill="#57266B" d="M196.982,15.958c-4.113,1.344-8.515,1.799-12.815,1.325c-3.147-0.347-6.283-1.208-8.958-2.901
				c-4.768-3.018-7.395-8.786-7.195-14.383h-2.625c-0.839,6.079,1.828,12.71,7.063,16.024c2.676,1.693,5.812,2.554,8.958,2.901
				c4.161,0.459,8.413,0.04,12.41-1.204C194.717,16.892,195.798,16.267,196.982,15.958z"/>
		</g>
		<g>
			<path fill="#57266B" d="M255.188,35.007c0.425,0.32,0.772,0.756,1.027,1.24c1.111-0.367,2.147-0.945,3.014-1.724
				C257.941,34.992,256.545,35.172,255.188,35.007z"/>
		</g>
		<g>
			<path fill="#57266B" d="M263.169,21.965c0.118,0.167,0.202,0.353,0.306,0.528c0.271-0.205,0.53-0.428,0.771-0.675
				C263.896,21.904,263.538,21.963,263.169,21.965z"/>
		</g>
		<g>
			<path fill="#57266B" d="M205.33,54.638c-4.3-3.722-4.924-10.96-1.323-15.362c-2.097,1.035-4.533,1.56-6.799,0.979
				c-2.265-0.582-4.277-2.435-4.605-4.75c-0.165-1.171,0.2-2.396,0.9-3.343c-2.288,0.207-3.979,2.699-3.656,4.984
				c0.327,2.315,2.34,4.168,4.605,4.75c2.265,0.582,4.701,0.057,6.799-0.979c-3.601,4.402-2.978,11.64,1.323,15.362
				c3.962,3.428,10.423,3.332,14.419,0.016C213.183,57.854,208.472,57.355,205.33,54.638z"/>
		</g>
		<g>
			<path fill="#57266B" d="M234.44,54.214c0.208,0.779,0.248,1.575,0.154,2.356c2.562,0.107,5.256-0.961,7.509-2.335
				c0.412-0.251,0.812-0.521,1.211-0.791C240.48,54.851,237.214,55.582,234.44,54.214z"/>
		</g>
		<g>
			<path fill="#57266B" d="M227.263,63.238c-4.461-0.154-7.986-5.274-6.54-9.496c-0.826,0.903-1.817,1.621-2.897,2.17
				c-1,4.11,2.404,8.82,6.681,8.967c1.822,0.062,3.539-0.72,4.862-1.952C228.693,63.144,227.987,63.263,227.263,63.238z"/>
		</g>
	</g>
</g>
</svg>
